<svg width="18" height="20" viewBox="0 0 18 20" fill="none" xmlns="http://www.w3.org/2000/svg">
<path d="M8.54688 19.6094C8.22396 18.3802 7.76042 17.2292 7.15625 16.1562C6.5625 15.0729 5.40625 13.3958 3.6875 11.125C2.42708 9.45833 1.65104 8.40104 1.35938 7.95312C0.880208 7.22396 0.53125 6.55729 0.3125 5.95312C0.104167 5.33854 0 4.71875 0 4.09375C0 2.9375 0.385417 1.96875 1.15625 1.1875C1.92708 0.40625 2.88021 0.015625 4.01562 0.015625C5.16146 0.015625 6.15625 0.421875 7 1.23438C7.63542 1.83854 8.15104 2.73958 8.54688 3.9375C8.89062 2.76042 9.375 1.86458 10 1.25C10.8646 0.416667 11.8646 0 13 0C14.125 0 15.0781 0.390625 15.8594 1.17188C16.6406 1.94271 17.0312 2.86458 17.0312 3.9375C17.0312 4.875 16.8021 5.85417 16.3438 6.875C15.8854 7.88542 15 9.21354 13.6875 10.8594C11.9792 13.0156 10.7344 14.7865 9.95312 16.1719C9.33854 17.2656 8.86979 18.4115 8.54688 19.6094Z" fill="black" style="fill:black;fill-opacity:1;"/>
</svg>
